<?xml version="1.0" standalone="no"?>
<!DOCTYPE svg PUBLIC "-//W3C//DTD SVG 20010904//EN"
 "http://www.w3.org/TR/2001/REC-SVG-20010904/DTD/svg10.dtd">
<svg version="1.0" xmlns="http://www.w3.org/2000/svg"
 width="120.000000pt" height="120.000000pt" viewBox="0 0 120.000000 120.000000"
 preserveAspectRatio="xMidYMid meet">
<metadata>
Created by potrace 1.14, written by Peter Selinger 2001-2017
</metadata>
<g transform="translate(0.000000,120.000000) scale(0.100000,-0.100000)"
fill="#000000" stroke="none">
<path d="M335 1070 c-3 -6 1 -7 9 -4 18 7 21 14 7 14 -6 0 -13 -4 -16 -10z"/>
<path d="M840 1076 c0 -2 7 -7 16 -10 8 -3 12 -2 9 4 -6 10 -25 14 -25 6z"/>
<path d="M262 1021 c-200 -158 -259 -431 -145 -669 17 -36 56 -86 103 -133
113 -114 221 -159 380 -159 179 0 326 73 432 212 73 97 100 172 106 299 5 119
-8 179 -60 283 -30 59 -131 171 -176 195 -13 7 8 -18 46 -56 79 -79 118 -152
134 -252 21 -135 -27 -305 -115 -406 l-35 -40 -7 30 c-19 80 -106 178 -193
217 -35 16 -68 22 -132 22 -77 1 -92 -2 -152 -32 -79 -39 -139 -102 -166 -174
l-18 -49 -37 40 c-60 66 -90 138 -105 251 -22 157 23 288 133 396 36 35 63 64
61 64 -2 0 -26 -18 -54 -39z m481 -524 c27 -16 47 -30 45 -33 -2 -2 -28 3 -58
11 -71 19 -181 19 -254 0 -33 -9 -61 -14 -63 -11 -5 4 52 40 88 55 13 6 62 10
109 8 73 -2 92 -6 133 -30z m37 -212 c47 -8 99 -19 115 -24 l30 -9 -28 -1
c-15 -1 -44 -12 -65 -24 -83 -53 -208 -76 -307 -58 -33 6 -92 27 -131 46 -40
19 -82 35 -95 36 -21 1 -21 2 6 10 124 38 333 49 475 24z"/>
<path d="M676 1021 c-10 -16 43 -110 79 -137 38 -29 81 -45 100 -38 24 10 18
21 -29 48 -24 14 -66 51 -94 82 -31 36 -52 52 -56 45z"/>
<path d="M462 969 c-24 -27 -64 -61 -88 -75 -44 -26 -56 -43 -31 -45 68 -6
135 46 172 135 22 52 0 46 -53 -15z"/>
<path d="M486 800 c-41 -44 -82 -62 -153 -68 -35 -2 -63 -9 -63 -14 0 -19 66
-48 110 -48 77 0 150 65 150 133 0 35 -8 34 -44 -3z"/>
<path d="M670 803 c0 -100 138 -168 228 -113 44 27 40 40 -11 40 -63 0 -129
26 -167 65 -41 42 -50 43 -50 8z"/>
</g>
</svg>
